<svg style="display: none" xmlns="http://www.w3.org/2000/svg">
    <symbol id="icon-notifications" width="24" height="24" viewBox="0 0 24 24" fill="none">
        <path fill-rule="evenodd" clip-rule="evenodd" d="M6 17H18V13C18 9.68629 15.3137 7 12 7C8.68629 7 6 9.68629 6 13V17Z" stroke="#363837"/>
        <rect x="11" y="5" width="2" height="1" stroke="#363837" stroke-linecap="round" stroke-linejoin="round"/>
        <path d="M7 19H17" stroke="#363837" stroke-linecap="round" stroke-linejoin="round"/>
    </symbol>
    <symbol id="icon-message" width="24" height="24" viewBox="0 0 24 24" fill="none">
        <path d="M5 7.5L12 12.5" stroke="#363837" stroke-linecap="round" stroke-linejoin="round"/>
        <path d="M19 7.5L12 12.5" stroke="#363837" stroke-linecap="round" stroke-linejoin="round"/>
        <path fill-rule="evenodd" clip-rule="evenodd" d="M5 7H19V17H5V7Z" stroke="#363837" stroke-linecap="round" stroke-linejoin="round"/>
    </symbol>
    <symbol id="icon-search" width="24" height="24" viewBox="0 0 24 24" fill="none">
        <path opacity="0.4" fill-rule="evenodd" clip-rule="evenodd" d="M11 17C14.3137 17 17 14.3137 17 11C17 7.68629 14.3137 5 11 5C7.68629 5 5 7.68629 5 11C5 14.3137 7.68629 17 11 17Z" stroke="#363837"/>
        <path opacity="0.4" d="M15.5 15.5L18.6866 18.6866" stroke="#363837" stroke-linecap="round" stroke-linejoin="round"/>
    </symbol>
    <symbol id="icon-like" width="24" height="24" viewBox="0 0 24 24" fill="none">
        <path opacity="0.5" fill-rule="evenodd" clip-rule="evenodd" d="M12.001 19C12.001 19 5.45454 12.9471 4.31981 10.5011C3.18508 8.05507 5.25366 5 7.63914 5C10.0246 5 12.001 7.34142 12.001 7.34142C12.001 7.34142 14.1843 5 16.2927 5C18.401 5 20.9495 7.56199 19.6436 10.5011C18.3378 13.4402 12.001 19 12.001 19Z" stroke="#363837" stroke-linecap="square"/>
    </symbol>
    <symbol id="icon-liked" width="24" height="24" viewBox="0 0 24 24" fill="#ff3333">
        <path fill-rule="evenodd" clip-rule="evenodd" d="M12.001 19C12.001 19 5.45454 12.9471 4.31981 10.5011C3.18508 8.05507 5.25366 5 7.63914 5C10.0246 5 12.001 7.34142 12.001 7.34142C12.001 7.34142 14.1843 5 16.2927 5C18.401 5 20.9495 7.56199 19.6436 10.5011C18.3378 13.4402 12.001 19 12.001 19Z"/>
    </symbol>
    <symbol id="icon-recipe-save" width="14" height="14" viewBox="0 0 14 14" fill="none">
        <path d="M7.00002 2.91669V11.0834" stroke="#30BE76" stroke-linecap="round" stroke-linejoin="round"/>
        <path d="M2.91663 6.99998H11.0833" stroke="#30BE76" stroke-linecap="round" stroke-linejoin="round"/>
    </symbol>
    <symbol id="icon-bottom-search" width="32" height="32" viewBox="0 0 32 32" fill="none">
        <path fill-rule="evenodd" clip-rule="evenodd" d="M14.6666 22.6667C19.0849 22.6667 22.6666 19.085 22.6666 14.6667C22.6666 10.2484 19.0849 6.66669 14.6666 6.66669C10.2483 6.66669 6.66663 10.2484 6.66663 14.6667C6.66663 19.085 10.2483 22.6667 14.6666 22.6667Z" stroke="#363837"/>
        <path d="M20.6667 20.6667L24.9154 24.9154" stroke="#363837" stroke-linecap="round" stroke-linejoin="round"/>
    </symbol>
    <symbol id="icon-bottom-feed" width="32" height="32" viewBox="0 0 32 32" fill="none">
        <rect x="10.6666" y="8" width="10.6667" height="16" stroke="#30BE76" stroke-linecap="round" stroke-linejoin="round"/>
        <path d="M24 8H25.3333V24H24" stroke="#30BE76" stroke-linecap="round" stroke-linejoin="round"/>
        <path d="M7.99996 8H6.66663V24H7.99996" stroke="#30BE76" stroke-linecap="round" stroke-linejoin="round"/>
    </symbol>
    <symbol id="icon-bottom-cook" width="32" height="32" viewBox="0 0 32 32" fill="none">
        <path d="M23.1111 17.3334L24 25.3334H8L8.88889 17.3334" stroke="#363837" stroke-linecap="round" stroke-linejoin="round"/>
        <path d="M20.5118 17.0247L20.6264 16.538C20.4703 16.5012 20.3059 16.5416 20.1846 16.6466L20.5118 17.0247ZM11.4882 17.0247L11.8153 16.6466C11.694 16.5416 11.5297 16.5012 11.3736 16.538L11.4882 17.0247ZM11.4882 8.30869L11.3736 8.79538C11.5297 8.83215 11.694 8.79176 11.8153 8.6868L11.4882 8.30869ZM20.5118 8.30869L20.1846 8.68679C20.3059 8.79176 20.4703 8.83215 20.6264 8.79538L20.5118 8.30869ZM16 19.1667C17.867 19.1667 19.5714 18.4996 20.839 17.4028L20.1846 16.6466C19.0998 17.5853 17.628 18.1667 16 18.1667V19.1667ZM11.161 17.4028C12.4286 18.4996 14.133 19.1667 16 19.1667V18.1667C14.3719 18.1667 12.9002 17.5853 11.8153 16.6466L11.161 17.4028ZM11.3736 16.538C11.0173 16.6219 10.643 16.6667 10.2564 16.6667V17.6667C10.7204 17.6667 11.1716 17.6129 11.6028 17.5114L11.3736 16.538ZM10.2564 16.6667C7.77036 16.6667 5.83331 14.8345 5.83331 12.6667H4.83331C4.83331 15.4694 7.30454 17.6667 10.2564 17.6667V16.6667ZM5.83331 12.6667C5.83331 10.4989 7.77036 8.66669 10.2564 8.66669V7.66669C7.30454 7.66669 4.83331 9.86392 4.83331 12.6667H5.83331ZM10.2564 8.66669C10.643 8.66669 11.0173 8.7115 11.3736 8.79538L11.6028 7.82201C11.1716 7.72049 10.7204 7.66669 10.2564 7.66669V8.66669ZM16 6.16669C14.133 6.16669 12.4286 6.83373 11.161 7.93059L11.8153 8.6868C12.9002 7.74806 14.3719 7.16669 16 7.16669V6.16669ZM20.839 7.93059C19.5714 6.83373 17.867 6.16669 16 6.16669V7.16669C17.628 7.16669 19.0998 7.74806 20.1846 8.68679L20.839 7.93059ZM20.6264 8.79538C20.9826 8.7115 21.3569 8.66669 21.7436 8.66669V7.66669C21.2795 7.66669 20.8283 7.72049 20.3972 7.822L20.6264 8.79538ZM21.7436 8.66669C24.2296 8.66669 26.1666 10.4989 26.1666 12.6667H27.1666C27.1666 9.86392 24.6954 7.66669 21.7436 7.66669V8.66669ZM26.1666 12.6667C26.1666 14.8345 24.2296 16.6667 21.7436 16.6667V17.6667C24.6954 17.6667 27.1666 15.4694 27.1666 12.6667H26.1666ZM21.7436 16.6667C21.3569 16.6667 20.9826 16.6219 20.6264 16.538L20.3972 17.5114C20.8283 17.6129 21.2795 17.6667 21.7436 17.6667V16.6667Z" fill="#363837"/>
    </symbol>
    <symbol id="icon-small-screen" width="25" height="24" viewBox="0 0 25 24" fill="none">
        <rect x="3.2793" y="5.5" width="19.0787" height="13" rx="1.5" stroke="white"/>
        <rect x="13.8223" y="12" width="6.02362" height="4" rx="1" fill="white"/>
    </symbol>
    <symbol id="icon-full-screen" width="25" height="24" viewBox="0 0 25 24" fill="none">
        <path d="M15.9482 19H19.964V15" stroke="white" stroke-linecap="round" stroke-linejoin="round"/>
        <path d="M19.964 9V5L15.9482 5" stroke="white" stroke-linecap="round" stroke-linejoin="round"/>
        <path d="M5.90918 15L5.90918 19H9.92493" stroke="white" stroke-linecap="round" stroke-linejoin="round"/>
        <path d="M9.92493 5.01927L5.90918 5L5.90918 9" stroke="white" stroke-linecap="round" stroke-linejoin="round"/>
    </symbol>
</svg>